# xmcd
#
# Track frame offsets:
#	150
#	12675
#	26938
#	41218
#	53465
#	60849
#	76974
#	90409
#	104284
#	118084
#	129441
#	142776
#	159006
#	170140
#	183715
#	196791
#
# Disc length: 2781 seconds
# Revision: 0
# Processed by: cddbd v1.5.2PL0 Copyright (c) Steve Scherf et al.
# Submitted via: dBpowerAMP V12.0
#
DISCID=cb0adb10
DTITLE=Various Artist - Reefer Blues: Vintage Songs About Marijuana Volume 1
DYEAR=1938
DGENRE=Blues
TTITLE0=The Buster Bailey Rhythm Busters - Light Up
TTITLE1=Rosetta Howard and The Harlem Hamfats - If You're A Viper
TTITLE2=Cab Calloway and His Orchestra - Man From Harlem
TTITLE3=Trixie Smith - Jack, I'm Mellow
TTITLE4=Buck Washington - Save The Roach For Me
TTITLE5=Don Redman and His Orchestra - Reefer Man
TTITLE6=Barney Bigard Sextet - Sweet Marijuana Brown
TTITLE7=Sidney Bechet With Noble Sissles Swingsters - Viper Mad
TTITLE8=Stuff Smith and His Onyx Club Boys - Here Comes The Man With The Jive
TTITLE9=Lil Johnson - Mellow Stuff
TTITLE10=Georgia White - The Stuff Is Here
TTITLE11=Cab Calloway and His Cotton Club Orchestra - Minnie The Moocher
TTITLE12=Ella Fitzgerald and Chick Webb - When I Get Low, I Get High
TTITLE13=Lil Green - Knockin' Myself Out
TTITLE14=Fats Waller - If You're A Viper
TTITLE15=Andy Kirk and His Twelve Clouds Of Joy - All The Jive Is Gone
EXTD=
EXTT0=
EXTT1=
EXTT2=
EXTT3=
EXTT4=
EXTT5=
EXTT6=
EXTT7=
EXTT8=
EXTT9=
EXTT10=
EXTT11=
EXTT12=
EXTT13=
EXTT14=
EXTT15=
PLAYORDER=
